<?xml version="1.0" encoding="UTF-8"?> <svg xmlns="http://www.w3.org/2000/svg" width="1400" height="265" viewBox="0 0 1400 265" fill="none"><path d="M0.00012926 142L1400 142L1400 170.653L0.000122741 170.653L0.00012926 142Z" fill="#1F1F1F"></path><path d="M9.63149e-05 178.551L1400 178.551L1400 193.491L8.96143e-05 193.491L9.63149e-05 178.551Z" fill="#1F1F1F"></path><path d="M7.05803e-05 201.389L1400 201.389L1400 213.791L6.50177e-05 213.792L7.05803e-05 201.389Z" fill="#1F1F1F"></path><path d="M4.77049e-05 221.689L1400 221.689L1400 231.015L4.35222e-05 231.015L4.77049e-05 221.689Z" fill="#1F1F1F"></path><path d="M2.82965e-05 238.913L1400 238.913L1400 244.496L2.57925e-05 244.496L2.82965e-05 238.913Z" fill="#1F1F1F"></path><path d="M1.31058e-05 252.394L1400 252.394L1400 255.482L1.17208e-05 255.482L1.31058e-05 252.394Z" fill="#1F1F1F"></path><path d="M7.26496e-07 263.38L1400 263.38L1400 265L0 265L7.26496e-07 263.38Z" fill="#1F1F1F"></path><path d="M0 122.928V2.07182H89.5399V25.2072H28.3485V52.8315H76.9213V75.2762H28.3485V122.928H0Z" fill="#1F1F1F"></path><path d="M103.791 108.425C93.5349 97.3757 88.4068 82.0672 88.4068 62.5C88.4068 42.9328 93.5349 27.6243 103.791 16.5746C114.162 5.52486 128.798 0 147.697 0C166.711 0 181.346 5.52486 191.602 16.5746C201.974 27.6243 207.159 42.9328 207.159 62.5C207.159 82.0672 201.974 97.3757 191.602 108.425C181.346 119.475 166.711 125 147.697 125C128.798 125 114.162 119.475 103.791 108.425ZM124.88 33.8398C119.463 40.9761 116.755 50.5295 116.755 62.5C116.755 74.4705 119.463 84.0239 124.88 91.1602C130.411 98.2965 138.017 101.865 147.697 101.865C157.492 101.865 165.098 98.2965 170.514 91.1602C176.045 84.0239 178.811 74.4705 178.811 62.5C178.811 50.5295 176.045 40.9761 170.514 33.8398C165.098 26.7035 157.492 23.1354 147.697 23.1354C138.017 23.1354 130.411 26.7035 124.88 33.8398Z" fill="#1F1F1F"></path><path d="M225.763 108.425C215.507 97.3757 210.379 82.0672 210.379 62.5C210.379 42.9328 215.507 27.6243 225.763 16.5746C236.135 5.52486 250.77 0 269.669 0C288.683 0 303.318 5.52486 313.574 16.5746C323.946 27.6243 329.132 42.9328 329.132 62.5C329.132 82.0672 323.946 97.3757 313.574 108.425C303.318 119.475 288.683 125 269.669 125C250.77 125 236.135 119.475 225.763 108.425ZM246.852 33.8398C241.436 40.9761 238.727 50.5295 238.727 62.5C238.727 74.4705 241.436 84.0239 246.852 91.1602C252.383 98.2965 259.989 101.865 269.669 101.865C279.464 101.865 287.07 98.2965 292.486 91.1602C298.017 84.0239 300.783 74.4705 300.783 62.5C300.783 50.5295 298.017 40.9761 292.486 33.8398C287.07 26.7035 279.464 23.1354 269.669 23.1354C259.989 23.1354 252.383 26.7035 246.852 33.8398Z" fill="#1F1F1F"></path><path d="M325.691 25.2072V2.07182H428.195V25.2072H391.203V122.928H362.855V25.2072H325.691Z" fill="#1F1F1F"></path><path d="M434.546 122.928V2.07182H526.333V24.1713H462.894V51.105H512.331V71.8232H462.894V100.829H528.753V122.928H434.546Z" fill="#1F1F1F"></path><path d="M645.108 122.928H611.229L580.633 77.6934H566.804V122.928H538.456V2.07182H594.461C607.483 2.07182 618.316 5.2371 626.958 11.5677C635.601 17.7831 639.923 27.4517 639.923 40.5732C639.923 60.3706 630.012 72.2836 610.191 76.3121L645.108 122.928ZM566.804 24.6892V56.4572H591.177C604.775 56.4572 611.574 51.1625 611.574 40.5732C611.574 29.9839 604.775 24.6892 591.177 24.6892H566.804Z" fill="#1F1F1F"></path><path d="M771.195 2.07182H820.287V122.928H793.321V19.5097L769.467 122.928H731.266L707.411 19.5097V122.928H680.273V2.07182H729.883L750.453 105.145L771.195 2.07182Z" fill="#1F1F1F"></path><path d="M845.171 108.425C834.915 97.3757 829.787 82.0672 829.787 62.5C829.787 42.9328 834.915 27.6243 845.171 16.5746C855.543 5.52486 870.178 0 889.077 0C908.091 0 922.727 5.52486 932.983 16.5746C943.354 27.6243 948.54 42.9328 948.54 62.5C948.54 82.0672 943.354 97.3757 932.983 108.425C922.727 119.475 908.091 125 889.077 125C870.178 125 855.543 119.475 845.171 108.425ZM866.26 33.8398C860.844 40.9761 858.136 50.5295 858.136 62.5C858.136 74.4705 860.844 84.0239 866.26 91.1602C871.791 98.2965 879.397 101.865 889.077 101.865C898.872 101.865 906.478 98.2965 911.894 91.1602C917.426 84.0239 920.191 74.4705 920.191 62.5C920.191 50.5295 917.426 40.9761 911.894 33.8398C906.478 26.7035 898.872 23.1354 889.077 23.1354C879.397 23.1354 871.791 26.7035 866.26 33.8398Z" fill="#1F1F1F"></path><path d="M951.759 62.5C951.759 43.3932 956.772 28.1998 966.798 16.9199C976.939 5.63996 990.94 0 1008.8 0C1023.67 0 1035.71 3.74079 1044.93 11.2224C1054.15 18.704 1059.79 28.948 1061.87 41.9544L1034.73 44.1989C1033.46 37.7532 1030.47 32.6312 1025.74 28.8329C1021.13 25.0345 1015.49 23.1354 1008.8 23.1354C999.237 23.1354 992.035 26.9337 987.195 34.5304C982.47 42.012 980.108 51.3352 980.108 62.5C980.108 74.3554 982.816 83.9088 988.232 91.1602C993.648 98.2965 1001.02 101.865 1010.36 101.865C1017.5 101.865 1023.32 99.7353 1027.82 95.4765C1032.31 91.2178 1035.19 85.7505 1036.46 79.0746L1063.77 80.8011C1061.93 94.8435 1056.45 105.721 1047.35 113.432C1038.25 121.144 1025.91 125 1010.36 125C991.92 125 977.515 119.418 967.144 108.253C956.887 96.9728 951.759 81.7219 951.759 62.5Z" fill="#1F1F1F"></path><path d="M1179.2 122.928H1145.5L1108.85 73.0318H1099.69V122.928H1071.34V2.07182H1099.69V51.2776H1108.16L1142.04 2.07182H1175.23L1130.63 60.4282L1179.2 122.928Z" fill="#1F1F1F"></path><path d="M1179.13 75.2762V2.07182H1207.48V73.2044C1207.48 92.3112 1215.66 101.865 1232.03 101.865C1248.28 101.865 1256.4 92.3112 1256.4 73.2044V2.07182H1284.75V75.2762C1284.75 108.425 1267.18 125 1232.03 125C1196.76 125 1179.13 108.425 1179.13 75.2762Z" fill="#1F1F1F"></path><path d="M1300.26 122.928V2.07182H1354.71C1363.01 2.07182 1370.38 3.28038 1376.84 5.69751C1383.41 8.11464 1388.88 12.3734 1393.26 18.4738C1397.75 24.459 1400 32.0557 1400 41.2638C1400 54.6156 1395.91 64.2841 1387.73 70.2693C1379.55 76.1395 1368.83 79.0746 1355.58 79.0746H1328.61V122.928H1300.26ZM1328.61 57.3204H1351.25C1364.85 57.3204 1371.65 51.9682 1371.65 41.2638C1371.65 30.5594 1364.85 25.2072 1351.25 25.2072H1328.61V57.3204Z" fill="#1F1F1F"></path></svg> 