<svg width="1442" height="299" viewBox="0 0 1442 299" fill="none" xmlns="http://www.w3.org/2000/svg">
<path fill-rule="evenodd" clip-rule="evenodd" d="M1 1H1441V49H1V1ZM1441 70H1V110H1441V70ZM1441 184H1V208H1441V184ZM1 131.003H1441V163.003H1V131.003ZM1441 229H1V247H1441V229ZM1 267.128H1441V274.513L1 275.128V267.128ZM1441 295.316H1V298.316L1441 298.085V295.316Z" fill="#1F1F1F"/>
<path d="M1441 1H1441.5V0.5H1441V1ZM1 1V0.5H0.5V1H1ZM1441 49V49.5H1441.5V49H1441ZM1 49H0.5V49.5H1V49ZM1 70V69.5H0.5V70H1ZM1441 70H1441.5V69.5H1441V70ZM1 110H0.5V110.5H1V110ZM1441 110V110.5H1441.5V110H1441ZM1 184V183.5H0.5V184H1ZM1441 184H1441.5V183.5H1441V184ZM1 208H0.5V208.5H1V208ZM1441 208V208.5H1441.5V208H1441ZM1441 131.003H1441.5V130.503H1441V131.003ZM1 131.003V130.503H0.5V131.003H1ZM1441 163.003V163.503H1441.5V163.003H1441ZM1 163.003H0.5V163.503H1V163.003ZM1 229V228.5H0.5V229H1ZM1441 229H1441.5V228.5H1441V229ZM1 247H0.5V247.5H1V247ZM1441 247V247.5H1441.5V247H1441ZM1441 267.128H1441.5V266.628H1441V267.128ZM1 267.128V266.628H0.5V267.128H1ZM1441 274.513L1441 275.013L1441.5 275.013V274.513H1441ZM1 275.128H0.5V275.629L1.00021 275.628L1 275.128ZM1 295.316V294.816H0.5V295.316H1ZM1441 295.316H1441.5V294.816H1441V295.316ZM1 298.316H0.5V298.816L1.00008 298.816L1 298.316ZM1441 298.085L1441 298.585L1441.5 298.585V298.085H1441ZM1441 0.5H1V1.5H1441V0.5ZM1441.5 49V1H1440.5V49H1441.5ZM1 49.5H1441V48.5H1V49.5ZM0.5 1V49H1.5V1H0.5ZM1 70.5H1441V69.5H1V70.5ZM1.5 110V70H0.5V110H1.5ZM1441 109.5H1V110.5H1441V109.5ZM1440.5 70V110H1441.5V70H1440.5ZM1 184.5H1441V183.5H1V184.5ZM1.5 208V184H0.5V208H1.5ZM1441 207.5H1V208.5H1441V207.5ZM1440.5 184V208H1441.5V184H1440.5ZM1441 130.503H1V131.503H1441V130.503ZM1441.5 163.003V131.003H1440.5V163.003H1441.5ZM1 163.503H1441V162.503H1V163.503ZM0.5 131.003V163.003H1.5V131.003H0.5ZM1 229.5H1441V228.5H1V229.5ZM1.5 247V229H0.5V247H1.5ZM1441 246.5H1V247.5H1441V246.5ZM1440.5 229V247H1441.5V229H1440.5ZM1441 266.628H1V267.628H1441V266.628ZM1441.5 274.513V267.128H1440.5V274.513H1441.5ZM1.00021 275.628L1441 275.013L1441 274.013L0.999786 274.628L1.00021 275.628ZM0.5 267.128V275.128H1.5V267.128H0.5ZM1 295.816H1441V294.816H1V295.816ZM1.5 298.316V295.316H0.5V298.316H1.5ZM1441 297.585L0.99992 297.816L1.00008 298.816L1441 298.585L1441 297.585ZM1440.5 295.316V298.085H1441.5V295.316H1440.5Z" fill="#1F1F1F"/>
</svg>
