<?xml version="1.0" encoding="UTF-8"?> <svg xmlns="http://www.w3.org/2000/svg" width="147" height="85" viewBox="0 0 147 85" fill="none"><rect x="0.5" y="0.5" width="146" height="84" fill="#D6DBE0"></rect><rect x="0.5" y="0.5" width="146" height="84" stroke="#1F1F1F"></rect><path d="M106 42.4997C106 53.6742 97.0069 62.7318 85.9147 62.7318C81.4043 62.7377 77.0255 61.2127 73.498 58.4074C75.8955 56.5057 77.8318 54.0868 79.1609 51.3318C80.4901 48.577 81.1778 45.5575 81.1707 42.4997C81.1766 39.4425 80.4901 36.4236 79.1621 33.6691C77.833 30.9146 75.8979 28.4959 73.5004 26.5942C77.0267 23.7883 81.4043 22.2627 85.9147 22.2676C97.0069 22.2676 105.998 31.3274 105.998 42.4997" fill="#1F1F1F"></path><path d="M65.8272 42.4997C65.8212 39.4425 66.5077 36.4236 67.8369 33.6691C69.1649 30.9146 71.0999 28.4959 73.4986 26.5942C69.9712 23.7885 65.5936 22.2629 61.0832 22.2676C49.991 22.2676 40.998 31.3274 40.998 42.4997C40.998 53.6742 49.991 62.7318 61.0832 62.7318C65.5936 62.7369 69.9712 61.2121 73.4986 58.4074C71.0999 56.5057 69.1637 54.0868 67.8345 51.3318C66.5054 48.577 65.8189 45.5575 65.8248 42.4997" fill="#1F1F1F"></path></svg> 