<?xml version="1.0" encoding="UTF-8"?> <svg xmlns="http://www.w3.org/2000/svg" width="147" height="85" viewBox="0 0 147 85" fill="none"><rect x="0.5" y="0.5" width="146" height="84" fill="#D6DBE0"></rect><rect x="0.5" y="0.5" width="146" height="84" stroke="#1F1F1F"></rect><path fill-rule="evenodd" clip-rule="evenodd" d="M33.9691 29.1569C34.836 29.1517 37.4116 28.9177 38.5024 32.632C39.2377 35.1341 40.4075 39.2327 42.0141 44.9277H42.6682C44.3911 38.9236 45.5741 34.8251 46.2183 32.632C47.3211 28.879 50.0767 29.157 51.1785 29.157L59.6834 29.157V55.8457H51.015V40.1176H50.4345L45.6026 55.8457H39.0808L34.2489 40.1059H33.6673V55.8457H25V29.157L33.9691 29.1569ZM72.1301 29.157V44.8968H72.8214L78.6991 31.9541C79.8404 29.3784 82.2712 29.157 82.2712 29.157H90.6597V55.8458H81.8103V40.1059H81.1189L75.3564 53.0486C74.2162 55.6127 71.6692 55.8458 71.6692 55.8458H63.2807V29.157H72.1301ZM121.245 41.8397C120.011 45.3684 116.135 47.8956 111.843 47.8956H102.563V55.8458H94.1484V41.8397H121.245Z" fill="#1F1F1F"></path><path fill-rule="evenodd" clip-rule="evenodd" d="M112.251 29.1562H93.709C94.1501 35.0981 99.2223 40.1846 104.473 40.1846H121.832C122.833 35.2463 119.385 29.1562 112.251 29.1562Z" fill="#1F1F1F"></path></svg> 