<?xml version="1.0" encoding="UTF-8"?> <svg xmlns="http://www.w3.org/2000/svg" width="156" height="18" viewBox="0 0 156 18" fill="none"><path fill-rule="evenodd" clip-rule="evenodd" d="M4.16051 2.49625C4.56266 2.49382 5.7574 2.38527 6.2634 4.10828C6.60447 5.26892 7.14713 7.17014 7.89238 9.81188H8.19578C8.995 7.02674 9.54375 5.12557 9.84257 4.10828C10.3542 2.36732 11.6324 2.49629 12.1435 2.49629L16.0887 2.49629V14.8765H12.0676V7.58064H11.7984L9.55698 14.8765H6.53168L4.2903 7.57519H4.0205V14.8765H0V2.49629L4.16051 2.49625ZM21.8624 2.49629V9.79757H22.1831L24.9096 3.79378C25.439 2.59901 26.5665 2.49629 26.5665 2.49629H30.4577V14.8765H26.3527V7.57519H26.032L23.359 13.579C22.8301 14.7684 21.6486 14.8765 21.6486 14.8765H17.7573V2.49629H21.8624ZM44.6456 8.37945C44.0729 10.0163 42.275 11.1886 40.284 11.1886H35.9795V14.8765H32.076V8.37945H44.6456Z" fill="#1F1F1F"></path><path fill-rule="evenodd" clip-rule="evenodd" d="M40.474 2.49609H31.873C32.0777 5.25234 34.4305 7.61186 36.8663 7.61186H44.9186C45.3829 5.32111 43.7834 2.49609 40.474 2.49609Z" fill="#1F1F1F"></path><path d="M95.9034 8.68623C95.9034 13.4838 92.0422 17.3725 87.28 17.3725C85.3436 17.375 83.4637 16.7203 81.9492 15.5159C82.9785 14.6994 83.8098 13.6609 84.3805 12.4781C84.9511 11.2954 85.2464 9.99903 85.2433 8.68623C85.2459 7.37369 84.9511 6.07758 84.381 4.895C83.8103 3.71241 82.9795 2.67399 81.9502 1.85755C83.4642 0.652908 85.3436 -0.00209228 87.28 5.02102e-06C92.0422 5.02102e-06 95.9024 3.88967 95.9024 8.68623" fill="#1F1F1F"></path><path d="M78.6579 8.68623C78.6554 7.37369 78.9501 6.07758 79.5208 4.895C80.0909 3.71241 80.9217 2.67399 81.9515 1.85754C80.437 0.652979 78.5576 -0.00201628 76.6212 4.66263e-06C71.859 4.66263e-06 67.998 3.88967 67.998 8.68623C67.998 13.4838 71.859 17.3725 76.6212 17.3725C78.5576 17.3747 80.437 16.72 81.9515 15.5159C80.9217 14.6994 80.0904 13.6609 79.5197 12.4781C78.9491 11.2954 78.6543 9.99903 78.6569 8.68623" fill="#1F1F1F"></path><path d="M133.453 3.05078L131.635 14.3713H134.544L136.386 3.05078H133.453Z" fill="#1F1F1F"></path><path d="M142.272 7.58324C141.254 7.07419 140.624 6.71057 140.624 6.17723C140.624 5.69246 141.157 5.20764 142.321 5.20764C143.266 5.18341 143.969 5.40153 144.503 5.64395L144.769 5.76515L145.157 3.31684C144.575 3.09868 143.654 2.83203 142.539 2.83203C139.655 2.83203 137.618 4.38343 137.594 6.56513C137.57 8.18927 139.048 9.08617 140.164 9.64369C141.303 10.2012 141.691 10.5648 141.691 11.0496C141.691 11.8011 140.77 12.1647 139.945 12.1647C138.782 12.1647 138.152 11.9951 137.206 11.5587L136.818 11.389L136.406 13.9343C137.085 14.2494 138.346 14.5161 139.679 14.5403C142.757 14.5403 144.745 13.0132 144.769 10.686C144.745 9.37705 143.969 8.4074 142.272 7.58324Z" fill="#1F1F1F"></path><path d="M152.65 3.05078H150.396C149.693 3.05078 149.159 3.24471 148.868 3.99618L144.529 14.3713H147.608C147.608 14.3713 148.117 12.9653 148.214 12.6744C148.553 12.6744 151.535 12.6744 151.971 12.6744C152.044 13.0622 152.311 14.3713 152.311 14.3713H155.026L152.65 3.05078ZM149.038 10.3715C149.281 9.71698 150.202 7.19594 150.202 7.19594C150.177 7.22017 150.444 6.54145 150.59 6.10514L150.783 7.07474C150.783 7.07474 151.341 9.78973 151.462 10.3472C151.026 10.3715 149.62 10.3715 149.038 10.3715Z" fill="#1F1F1F"></path><path d="M129.182 3.05078L126.322 10.7836L126.007 9.20793L124.989 4.02041C124.819 3.29319 124.31 3.09926 123.655 3.07502H118.953L118.904 3.29319C120.044 3.58408 121.086 4.02041 121.983 4.52946L124.601 14.347H127.704L132.285 3.05078H129.182Z" fill="#1F1F1F"></path></svg> 