<svg xmlns="http://www.w3.org/2000/svg" xmlns:xlink="http://www.w3.org/1999/xlink" viewBox="0 0 1440 450" width="1440" height="450" preserveAspectRatio="xMidYMid meet" style="width: 100%; height: 100%; transform: translate3d(0px, 0px, 0px); content-visibility: visible;"><defs><clipPath id="__lottie_element_3"><rect width="1440" height="450" x="0" y="0"></rect></clipPath><g id="__lottie_element_4"><g transform="matrix(1,0,0,1,720,225)" opacity="1" style="display: block;"><g opacity="1" transform="matrix(1,0,0,1,0,0)"><path fill="rgb(255,0,0)" fill-opacity="1" d=" M721,-223 C721,-223 -719,-223 -719,-223 C-719,-223 -721,-1 -721,-1 C-721,-1 720,-3 720,-3 C720,-3 721,-223 721,-223z"></path><path stroke-linecap="butt" stroke-linejoin="miter" fill-opacity="0" stroke-miterlimit="4" stroke="rgb(255,255,255)" stroke-opacity="1" stroke-width="0" d=" M721,-223 C721,-223 -719,-223 -719,-223 C-719,-223 -721,-1 -721,-1 C-721,-1 720,-3 720,-3 C720,-3 721,-223 721,-223z"></path></g></g></g><mask id="__lottie_element_4_1" mask-type="alpha"><use xlink:href="#__lottie_element_4"></use></mask><g id="__lottie_element_10"><g transform="matrix(1,0,0,1,720,448)" opacity="1" style="display: block;"><g opacity="1" transform="matrix(1,0,0,1,0,0)"><path fill="rgb(255,0,0)" fill-opacity="1" d=" M721,-222.9717254638672 C721,-222.9717254638672 -719,-222.9717254638672 -719,-222.9717254638672 C-719,-222.9717254638672 -721,-1 -721,-1 C-721,-1 720,-3 720,-3 C720,-3 721,-222.9717254638672 721,-222.9717254638672z"></path><path stroke-linecap="butt" stroke-linejoin="miter" fill-opacity="0" stroke-miterlimit="4" stroke="rgb(255,255,255)" stroke-opacity="1" stroke-width="0" d=" M721,-222.9717254638672 C721,-222.9717254638672 -719,-222.9717254638672 -719,-222.9717254638672 C-719,-222.9717254638672 -721,-1 -721,-1 C-721,-1 720,-3 720,-3 C720,-3 721,-222.9717254638672 721,-222.9717254638672z"></path></g></g></g><mask id="__lottie_element_10_1" mask-type="alpha"><use xlink:href="#__lottie_element_10"></use></mask></defs><g clip-path="url(#__lottie_element_3)"><g transform="matrix(1,0,0,1,0,-25)" opacity="1" style="display: block;"><rect width="1440" height="500" fill="#d6dbe0"></rect></g><g transform="matrix(1,0,0,1,0,-125)" opacity="1" style="display: block;"><rect width="1440" height="700" fill="#d6dbe0"></rect></g><g mask="url(#__lottie_element_10_1)" style="display: block;"><g transform="matrix(1.0378899574279785,0,0,1.0378899574279785,1.51348876953125,3.746795654296875)" opacity="1"><g opacity="1" transform="matrix(1,0,0,1,121.60600280761719,318.802001953125)"><path fill="rgb(31,31,31)" fill-opacity="1" d=" M26.597000122070312,-100.26399993896484 C26.597000122070312,-100.26399993896484 0.4359999895095825,62.73699951171875 0.4359999895095825,62.73699951171875 C0.4359999895095825,62.73699951171875 -25.724000930786133,-100.26399993896484 -25.724000930786133,-100.26399993896484 C-25.724000930786133,-100.26399993896484 -121.35600280761719,-100.26399993896484 -121.35600280761719,-100.26399993896484 C-121.35600280761719,-100.26399993896484 -121.35600280761719,100.26399993896484 -121.35600280761719,100.26399993896484 C-121.35600280761719,100.26399993896484 -69.32499694824219,100.26399993896484 -69.32499694824219,100.26399993896484 C-69.32499694824219,100.26399993896484 -69.32499694824219,-64.74199676513672 -69.32499694824219,-64.74199676513672 C-69.32499694824219,-64.74199676513672 -36.77000045776367,100.26399993896484 -36.77000045776367,100.26399993896484 C-36.77000045776367,100.26399993896484 36.770999908447266,100.26399993896484 36.770999908447266,100.26399993896484 C36.770999908447266,100.26399993896484 69.32599639892578,-64.74199676513672 69.32599639892578,-64.74199676513672 C69.32599639892578,-64.74199676513672 69.32599639892578,100.26399993896484 69.32599639892578,100.26399993896484 C69.32599639892578,100.26399993896484 121.35600280761719,100.26399993896484 121.35600280761719,100.26399993896484 C121.35600280761719,100.26399993896484 121.35600280761719,-100.26399993896484 121.35600280761719,-100.26399993896484 C121.35600280761719,-100.26399993896484 26.597000122070312,-100.26399993896484 26.597000122070312,-100.26399993896484z"></path></g><g opacity="1" transform="matrix(1,0,0,1,354.44000244140625,318.802001953125)"><path fill="rgb(31,31,31)" fill-opacity="1" d=" M-76.15599822998047,76.48699951171875 C-93.98400115966797,58.34400177001953 -102.89800262451172,32.847999572753906 -102.89800262451172,0 C-102.89800262451172,-32.847999572753906 -93.98400115966797,-58.34400177001953 -76.15599822998047,-76.48699951171875 C-58.327999114990234,-94.62999725341797 -32.94300079345703,-103.70099639892578 0,-103.70099639892578 C32.94300079345703,-103.70099639892578 58.327999114990234,-94.62999725341797 76.15599822998047,-76.48699951171875 C93.98400115966797,-58.34400177001953 102.89800262451172,-32.847999572753906 102.89800262451172,0 C102.89800262451172,32.847999572753906 93.98400115966797,58.34400177001953 76.15599822998047,76.48699951171875 C58.327999114990234,94.62999725341797 32.94300079345703,103.70099639892578 0,103.70099639892578 C-32.94300079345703,103.70099639892578 -58.327999114990234,94.62999725341797 -76.15599822998047,76.48699951171875z M-35.46099853515625,-43.542999267578125 C-43.987998962402344,-32.847999572753906 -48.25199890136719,-18.333999633789062 -48.25199890136719,0 C-48.25199890136719,18.333999633789062 -43.987998962402344,32.944000244140625 -35.46099853515625,43.83000183105469 C-26.740999221801758,54.52399826049805 -14.92199993133545,59.87200164794922 0,59.87200164794922 C15.114999771118164,59.87200164794922 26.934999465942383,54.52399826049805 35.46200180053711,43.83000183105469 C43.987998962402344,32.944000244140625 48.250999450683594,18.333999633789062 48.250999450683594,0 C48.250999450683594,-18.333999633789062 43.987998962402344,-32.847999572753906 35.46200180053711,-43.542999267578125 C26.934999465942383,-54.42900085449219 15.114999771118164,-59.87200164794922 0,-59.87200164794922 C-14.92199993133545,-59.87200164794922 -26.740999221801758,-54.42900085449219 -35.46099853515625,-43.542999267578125z"></path></g><g opacity="1" transform="matrix(1,0,0,1,562.177978515625,318.802001953125)"><path fill="rgb(31,31,31)" fill-opacity="1" d=" M-97.2300033569336,0 C-97.2300033569336,-31.89299964904785 -88.51000213623047,-57.10300064086914 -71.06999969482422,-75.62799835205078 C-53.43600082397461,-94.34300231933594 -29.21299934387207,-103.70099639892578 1.5980000495910645,-103.70099639892578 C27.759000778198242,-103.70099639892578 48.784000396728516,-97.39900207519531 64.67500305175781,-84.79499816894531 C80.56500244140625,-72.19000244140625 90.25399780273438,-50.60900115966797 93.74199676513672,-28.64699935913086 C93.74199676513672,-28.64699935913086 41.42100143432617,-28.64699935913086 41.42100143432617,-28.64699935913086 C39.28900146484375,-38.19599914550781 34.63800048828125,-45.73899841308594 27.468000411987305,-51.27799987792969 C20.492000579833984,-57.00699996948242 11.869000434875488,-59.87200164794922 1.5980000495910645,-59.87200164794922 C-8.477999687194824,-59.87200164794922 -17.0049991607666,-56.9119987487793 -23.981000900268555,-50.99100112915039 C-30.76300048828125,-45.262001037597656 -35.608001708984375,-38.005001068115234 -38.513999938964844,-29.219999313354492 C-41.22700119018555,-20.625999450683594 -42.58399963378906,-10.88599967956543 -42.58399963378906,0 C-42.58399963378906,18.333999633789062 -38.32099914550781,32.944000244140625 -29.79400062561035,43.83000183105469 C-21.26799964904785,54.52399826049805 -9.835000038146973,59.87200164794922 4.505000114440918,59.87200164794922 C15.357000350952148,59.87200164794922 24.173999786376953,56.72100067138672 30.95599937438965,50.417999267578125 C37.93299865722656,44.11600112915039 42.486000061035156,36 44.61800003051758,26.069000244140625 C44.61800003051758,26.069000244140625 97.2300033569336,26.069000244140625 97.2300033569336,26.069000244140625 C93.93599700927734,50.13199996948242 84.44000244140625,71.71299743652344 68.74400329589844,84.50800323486328 C53.04800033569336,97.30400085449219 31.635000228881836,103.70099639892578 4.505000114440918,103.70099639892578 C-27.4689998626709,103.70099639892578 -52.46699905395508,94.43900299072266 -70.48799896240234,75.91400146484375 C-88.31600189208984,57.388999938964844 -97.2300033569336,32.08399963378906 -97.2300033569336,0z"></path></g><g opacity="1" transform="matrix(1,0,0,1,761.9719848632812,318.802001953125)"><path fill="rgb(31,31,31)" fill-opacity="1" d=" M93.74199676513672,100.26399993896484 C93.74199676513672,100.26399993896484 28.631999969482422,100.26399993896484 28.631999969482422,100.26399993896484 C28.631999969482422,100.26399993896484 -22.937000274658203,26.069000244140625 -22.937000274658203,26.069000244140625 C-22.937000274658203,26.069000244140625 -39.095001220703125,48.17900085449219 -39.095001220703125,48.17900085449219 C-39.095001220703125,48.17900085449219 -39.095001220703125,100.26399993896484 -39.095001220703125,100.26399993896484 C-39.095001220703125,100.26399993896484 -93.74199676513672,100.26399993896484 -93.74199676513672,100.26399993896484 C-93.74199676513672,100.26399993896484 -93.74199676513672,-100.26399993896484 -93.74199676513672,-100.26399993896484 C-93.74199676513672,-100.26399993896484 -39.095001220703125,-100.26399993896484 -39.095001220703125,-100.26399993896484 C-39.095001220703125,-100.26399993896484 -39.095001220703125,-36.459999084472656 -39.095001220703125,-36.459999084472656 C-39.095001220703125,-36.459999084472656 8.442999839782715,-100.26399993896484 8.442999839782715,-100.26399993896484 C8.442999839782715,-100.26399993896484 69.55000305175781,-100.26399993896484 69.55000305175781,-100.26399993896484 C69.55000305175781,-100.26399993896484 12.645000457763672,-20.000999450683594 12.645000457763672,-20.000999450683594 C12.645000457763672,-20.000999450683594 93.74199676513672,100.26399993896484 93.74199676513672,100.26399993896484z"></path></g><g opacity="1" transform="matrix(1,0,0,1,929.2579956054688,320.52099609375)"><path fill="rgb(31,31,31)" fill-opacity="1" d=" M-91.85199737548828,18.334999084472656 C-91.85199737548828,18.334999084472656 -91.85199737548828,-101.98200225830078 -91.85199737548828,-101.98200225830078 C-91.85199737548828,-101.98200225830078 -37.20600128173828,-101.98200225830078 -37.20600128173828,-101.98200225830078 C-37.20600128173828,-101.98200225830078 -37.20600128173828,14.322999954223633 -37.20600128173828,14.322999954223633 C-37.20600128173828,43.35200119018555 -24.80299949645996,57.86600112915039 0.0010000000474974513,57.86600112915039 C24.80500030517578,57.86600112915039 37.207000732421875,43.35200119018555 37.207000732421875,14.322999954223633 C37.207000732421875,14.322999954223633 37.207000732421875,-101.98200225830078 37.207000732421875,-101.98200225830078 C37.207000732421875,-101.98200225830078 91.85199737548828,-101.98200225830078 91.85199737548828,-101.98200225830078 C91.85199737548828,-101.98200225830078 91.85199737548828,18.334999084472656 91.85199737548828,18.334999084472656 C91.85199737548828,46.027000427246094 84.10199737548828,66.93800354003906 68.5989990234375,81.06999969482422 C53.09700012207031,95.01200103759766 30.231000900268555,101.98200225830078 0.0010000000474974513,101.98200225830078 C-30.229000091552734,101.98200225830078 -53.09600067138672,95.01200103759766 -68.5979995727539,81.06999969482422 C-84.10099792480469,66.93800354003906 -91.85199737548828,46.027000427246094 -91.85199737548828,18.334999084472656z"></path></g><g opacity="1" transform="matrix(1,0,0,1,1118.010009765625,318.802001953125)"><path fill="rgb(31,31,31)" fill-opacity="1" d=" M-86.91000366210938,100.26399993896484 C-86.91000366210938,100.26399993896484 -86.91000366210938,-100.26399993896484 -86.91000366210938,-100.26399993896484 C-86.91000366210938,-100.26399993896484 8.140000343322754,-100.26399993896484 8.140000343322754,-100.26399993896484 C18.799999237060547,-100.26399993896484 28.59000015258789,-99.02200317382812 37.5,-96.54000091552734 C46.61000061035156,-94.24800109863281 54.939998626708984,-90.61900329589844 62.5,-85.65399932861328 C70.05000305175781,-80.68800354003906 75.95999908447266,-73.71800231933594 80.2300033569336,-64.74199676513672 C84.68000030517578,-55.957000732421875 86.91000366210938,-45.64400100708008 86.91000366210938,-33.803001403808594 C86.91000366210938,8.593999862670898 61.2400016784668,29.792999267578125 9.890000343322754,29.792999267578125 C9.890000343322754,29.792999267578125 -32.2599983215332,29.792999267578125 -32.2599983215332,29.792999267578125 C-32.2599983215332,29.792999267578125 -32.2599983215332,100.26399993896484 -32.2599983215332,100.26399993896484 C-32.2599983215332,100.26399993896484 -86.91000366210938,100.26399993896484 -86.91000366210938,100.26399993896484z M-32.2599983215332,-11.458999633789062 C-32.2599983215332,-11.458999633789062 1.4600000381469727,-11.458999633789062 1.4600000381469727,-11.458999633789062 C22,-11.458999633789062 32.27000045776367,-18.906999588012695 32.27000045776367,-33.803001403808594 C32.27000045776367,-48.70000076293945 22,-56.14799880981445 1.4600000381469727,-56.14799880981445 C1.4600000381469727,-56.14799880981445 -32.2599983215332,-56.14799880981445 -32.2599983215332,-56.14799880981445 C-32.2599983215332,-56.14799880981445 -32.2599983215332,-11.458999633789062 -32.2599983215332,-11.458999633789062z"></path></g><g opacity="1" transform="matrix(1,0,0,1,1295.10498046875,318.802001953125)"><path fill="rgb(31,31,31)" fill-opacity="1" d=" M-89.5250015258789,29.219999313354492 C-89.5250015258789,29.219999313354492 -38.375,29.219999313354492 -38.375,29.219999313354492 C-37.595001220703125,39.1510009765625 -34.30500030517578,47.07600021362305 -28.485000610351562,52.99700164794922 C-22.485000610351562,58.72600173950195 -12.21500015258789,61.590999603271484 2.325000047683716,61.590999603271484 C24.024999618530273,61.590999603271484 34.875,56.14799880981445 34.875,45.262001037597656 C34.875,40.67900085449219 32.845001220703125,37.24100112915039 28.774999618530273,34.94900131225586 C24.895000457763672,32.65700149536133 16.954999923706055,29.506000518798828 4.934999942779541,25.496000289916992 C4.934999942779541,25.496000289916992 -38.084999084472656,11.458999633789062 -38.084999084472656,11.458999633789062 C-67.34500122070312,1.909999966621399 -81.9749984741211,-16.32900047302246 -81.9749984741211,-43.25699996948242 C-81.9749984741211,-63.5 -74.41500091552734,-78.58799743652344 -59.29499816894531,-88.51899719238281 C-44.185001373291016,-98.63999938964844 -25.385000228881836,-103.70099639892578 -2.9049999713897705,-103.70099639892578 C20.924999237060547,-103.70099639892578 40.69499969482422,-97.87699890136719 56.3849983215332,-86.22699737548828 C72.2750015258789,-74.5770034790039 80.99500274658203,-55.28799819946289 82.54499816894531,-34.09000015258789 C82.54499816894531,-34.09000015258789 31.395000457763672,-34.09000015258789 31.395000457763672,-34.09000015258789 C29.454999923706055,-52.42399978637695 17.825000762939453,-61.590999603271484 -3.494999885559082,-61.590999603271484 C-19.385000228881836,-61.590999603271484 -27.325000762939453,-57.00699996948242 -27.325000762939453,-47.84000015258789 C-27.325000762939453,-43.638999938964844 -25.584999084472656,-40.29600143432617 -22.094999313354492,-37.81399917602539 C-18.604999542236328,-35.52199935913086 -12.694999694824219,-33.03900146484375 -4.364999771118164,-30.365999221801758 C-4.364999771118164,-30.365999221801758 38.654998779296875,-16.32900047302246 38.654998779296875,-16.32900047302246 C55.51499938964844,-10.980999946594238 68.20500183105469,-3.9149999618530273 76.73500061035156,4.869999885559082 C85.26499938964844,13.654999732971191 89.5250015258789,25.687000274658203 89.5250015258789,40.96500015258789 C89.5250015258789,61.972999572753906 81.57499694824219,77.72799682617188 65.68499755859375,88.23200225830078 C49.994998931884766,98.54499816894531 28.674999237060547,103.70099639892578 1.7450000047683716,103.70099639892578 C-56.78499984741211,103.70099639892578 -87.20500183105469,77.72799682617188 -89.5250015258789,29.219999313354492z"></path></g></g></g><g mask="url(#__lottie_element_4_1)" style="display: block;"><g transform="matrix(1.0378899574279785,0,0,1.0378899574279785,1.51348876953125,3.746795654296875)" opacity="1"><g opacity="1" transform="matrix(1,0,0,1,93.12100219726562,103.95099639892578)"><path fill="rgb(31,31,31)" fill-opacity="1" d=" M92.87000274658203,100.26399993896484 C92.87000274658203,100.26399993896484 27.757999420166016,100.26399993896484 27.757999420166016,100.26399993896484 C27.757999420166016,100.26399993896484 -21.073999404907227,27.500999450683594 -21.073999404907227,27.500999450683594 C-21.073999404907227,27.500999450683594 -38.2239990234375,27.500999450683594 -38.2239990234375,27.500999450683594 C-38.2239990234375,27.500999450683594 -38.2239990234375,100.26399993896484 -38.2239990234375,100.26399993896484 C-38.2239990234375,100.26399993896484 -92.87000274658203,100.26399993896484 -92.87000274658203,100.26399993896484 C-92.87000274658203,100.26399993896484 -92.87000274658203,-100.26399993896484 -92.87000274658203,-100.26399993896484 C-92.87000274658203,-100.26399993896484 5.085999965667725,-100.26399993896484 5.085999965667725,-100.26399993896484 C27.56599998474121,-100.26399993896484 46.26599884033203,-94.91600036621094 61.1870002746582,-84.22100067138672 C76.3010025024414,-73.71700286865234 83.85900115966797,-57.292999267578125 83.85900115966797,-34.94900131225586 C83.85900115966797,-2.4820001125335693 67.87200164794922,17.3799991607666 35.89799880981445,24.636999130249023 C35.89799880981445,24.636999130249023 92.87000274658203,100.26399993896484 92.87000274658203,100.26399993896484z M-38.2239990234375,-57.29399871826172 C-38.2239990234375,-57.29399871826172 -38.2239990234375,-12.604000091552734 -38.2239990234375,-12.604000091552734 C-38.2239990234375,-12.604000091552734 -1.5989999771118164,-12.604000091552734 -1.5989999771118164,-12.604000091552734 C18.94099998474121,-12.604000091552734 29.21299934387207,-20.052000045776367 29.21299934387207,-34.94900131225586 C29.21299934387207,-49.845001220703125 18.94099998474121,-57.29399871826172 -1.5989999771118164,-57.29399871826172 C-1.5989999771118164,-57.29399871826172 -38.2239990234375,-57.29399871826172 -38.2239990234375,-57.29399871826172z"></path></g><g opacity="1" transform="matrix(1,0,0,1,278.3380126953125,105.6709976196289)"><path fill="rgb(31,31,31)" fill-opacity="1" d=" M-91.85299682617188,18.33300018310547 C-91.85299682617188,18.33300018310547 -91.85299682617188,-101.98200225830078 -91.85299682617188,-101.98200225830078 C-91.85299682617188,-101.98200225830078 -37.20600128173828,-101.98200225830078 -37.20600128173828,-101.98200225830078 C-37.20600128173828,-101.98200225830078 -37.20600128173828,14.324000358581543 -37.20600128173828,14.324000358581543 C-37.20600128173828,43.35200119018555 -24.804000854492188,57.867000579833984 0,57.867000579833984 C24.804000854492188,57.867000579833984 37.20600128173828,43.35200119018555 37.20600128173828,14.324000358581543 C37.20600128173828,14.324000358581543 37.20600128173828,-101.98200225830078 37.20600128173828,-101.98200225830078 C37.20600128173828,-101.98200225830078 91.85299682617188,-101.98200225830078 91.85299682617188,-101.98200225830078 C91.85299682617188,-101.98200225830078 91.85299682617188,18.33300018310547 91.85299682617188,18.33300018310547 C91.85299682617188,46.025001525878906 84.10099792480469,66.93699645996094 68.5989990234375,81.06999969482422 C53.09600067138672,95.01100158691406 30.229999542236328,101.98200225830078 0,101.98200225830078 C-30.229999542236328,101.98200225830078 -53.09600067138672,95.01100158691406 -68.5989990234375,81.06999969482422 C-84.10199737548828,66.93699645996094 -91.85299682617188,46.025001525878906 -91.85299682617188,18.33300018310547z"></path></g><g opacity="1" transform="matrix(1,0,0,1,464.47601318359375,103.95099639892578)"><path fill="rgb(31,31,31)" fill-opacity="1" d=" M-89.5270004272461,29.2189998626709 C-89.5270004272461,29.2189998626709 -38.36899948120117,29.2189998626709 -38.36899948120117,29.2189998626709 C-37.59299850463867,39.150001525878906 -34.29899978637695,47.07699966430664 -28.486000061035156,52.99700164794922 C-22.47800064086914,58.72600173950195 -12.208000183105469,61.59000015258789 2.3259999752044678,61.59000015258789 C24.02899932861328,61.59000015258789 34.88100051879883,56.14799880981445 34.88100051879883,45.262001037597656 C34.88100051879883,40.67900085449219 32.84600067138672,37.24100112915039 28.777000427246094,34.95000076293945 C24.900999069213867,32.65800094604492 16.954999923706055,29.506000518798828 4.940999984741211,25.4950008392334 C4.940999984741211,25.4950008392334 -38.07899856567383,11.458999633789062 -38.07899856567383,11.458999633789062 C-67.33999633789062,1.909999966621399 -81.97000122070312,-16.32900047302246 -81.97000122070312,-43.25699996948242 C-81.97000122070312,-63.500999450683594 -74.41300201416016,-78.58699798583984 -59.29800033569336,-88.51799774169922 C-44.18299865722656,-98.63999938964844 -25.385000228881836,-103.7020034790039 -2.9059998989105225,-103.7020034790039 C20.929000854492188,-103.7020034790039 40.69300079345703,-97.87699890136719 56.38999938964844,-86.22699737548828 C72.27999877929688,-74.5780029296875 81.0009994506836,-55.28900146484375 82.5510025024414,-34.09000015258789 C82.5510025024414,-34.09000015258789 31.392000198364258,-34.09000015258789 31.392000198364258,-34.09000015258789 C29.45400047302246,-52.42399978637695 17.827999114990234,-61.590999603271484 -3.48799991607666,-61.590999603271484 C-19.378000259399414,-61.590999603271484 -27.323999404907227,-57.007999420166016 -27.323999404907227,-47.840999603271484 C-27.323999404907227,-43.638999938964844 -25.579999923706055,-40.297000885009766 -22.091999053955078,-37.81399917602539 C-18.604000091552734,-35.52299880981445 -12.692999839782715,-33.040000915527344 -4.361000061035156,-30.365999221801758 C-4.361000061035156,-30.365999221801758 38.65999984741211,-16.327999114990234 38.65999984741211,-16.327999114990234 C55.51900100708008,-10.980999946594238 68.21099853515625,-3.9149999618530273 76.73699951171875,4.869999885559082 C85.26300048828125,13.654999732971191 89.5270004272461,25.687000274658203 89.5270004272461,40.96500015258789 C89.5270004272461,61.972999572753906 81.58200073242188,77.72799682617188 65.69100189208984,88.23200225830078 C49.994998931884766,98.54399871826172 28.68000030517578,103.7020034790039 1.74399995803833,103.7020034790039 C-56.77799987792969,103.7020034790039 -87.2020034790039,77.72799682617188 -89.5270004272461,29.2189998626709z"></path></g><g opacity="1" transform="matrix(1,0,0,1,647.5770263671875,103.95099639892578)"><path fill="rgb(31,31,31)" fill-opacity="1" d=" M-89.5270004272461,29.2189998626709 C-89.5270004272461,29.2189998626709 -38.36800003051758,29.2189998626709 -38.36800003051758,29.2189998626709 C-37.59299850463867,39.150001525878906 -34.29899978637695,47.07699966430664 -28.485000610351562,52.99700164794922 C-22.47800064086914,58.72600173950195 -12.208000183105469,61.59000015258789 2.3259999752044678,61.59000015258789 C24.030000686645508,61.59000015258789 34.880001068115234,56.14799880981445 34.880001068115234,45.262001037597656 C34.880001068115234,40.67900085449219 32.84600067138672,37.24100112915039 28.775999069213867,34.95000076293945 C24.900999069213867,32.65800094604492 16.957000732421875,29.506000518798828 4.941999912261963,25.4950008392334 C4.941999912261963,25.4950008392334 -38.077999114990234,11.458999633789062 -38.077999114990234,11.458999633789062 C-67.33899688720703,1.909999966621399 -81.96900177001953,-16.32900047302246 -81.96900177001953,-43.25699996948242 C-81.96900177001953,-63.500999450683594 -74.41200256347656,-78.58699798583984 -59.297000885009766,-88.51799774169922 C-44.18199920654297,-98.63999938964844 -25.385000228881836,-103.7020034790039 -2.9059998989105225,-103.7020034790039 C20.929000854492188,-103.7020034790039 40.69499969482422,-97.87699890136719 56.39099884033203,-86.22699737548828 C72.28099822998047,-74.5780029296875 81.0009994506836,-55.28900146484375 82.552001953125,-34.09000015258789 C82.552001953125,-34.09000015258789 31.39299964904785,-34.09000015258789 31.39299964904785,-34.09000015258789 C29.454999923706055,-52.42399978637695 17.82900047302246,-61.590999603271484 -3.486999988555908,-61.590999603271484 C-19.378000259399414,-61.590999603271484 -27.322999954223633,-57.007999420166016 -27.322999954223633,-47.840999603271484 C-27.322999954223633,-43.638999938964844 -25.57900047302246,-40.297000885009766 -22.090999603271484,-37.81399917602539 C-18.601999282836914,-35.52299880981445 -12.692000389099121,-33.040000915527344 -4.360000133514404,-30.365999221801758 C-4.360000133514404,-30.365999221801758 38.659000396728516,-16.327999114990234 38.659000396728516,-16.327999114990234 C55.518001556396484,-10.980999946594238 68.21099853515625,-3.9149999618530273 76.73699951171875,4.869999885559082 C85.26399993896484,13.654999732971191 89.52799987792969,25.687000274658203 89.52799987792969,40.96500015258789 C89.52799987792969,61.972999572753906 81.58300018310547,77.72799682617188 65.69300079345703,88.23200225830078 C49.99599838256836,98.54399871826172 28.68000030517578,103.7020034790039 1.7450000047683716,103.7020034790039 C-56.77799987792969,103.7020034790039 -87.20099639892578,77.72799682617188 -89.5270004272461,29.2189998626709z"></path></g><g opacity="1" transform="matrix(1,0,0,1,770.7999877929688,103.95099639892578)"><path fill="rgb(31,31,31)" fill-opacity="1" d=" M-27.322999954223633,-100.26399993896484 C-27.322999954223633,-100.26399993896484 27.322999954223633,-100.26399993896484 27.322999954223633,-100.26399993896484 C27.322999954223633,-100.26399993896484 27.322999954223633,100.26399993896484 27.322999954223633,100.26399993896484 C27.322999954223633,100.26399993896484 -27.322999954223633,100.26399993896484 -27.322999954223633,100.26399993896484 C-27.322999954223633,100.26399993896484 -27.322999954223633,-100.26399993896484 -27.322999954223633,-100.26399993896484z"></path></g><g opacity="1" transform="matrix(1,0,0,1,907.718017578125,103.95099639892578)"><path fill="rgb(31,31,31)" fill-opacity="1" d=" M48.25,100.26399993896484 C48.25,100.26399993896484 36.332000732421875,59.29899978637695 36.332000732421875,59.29899978637695 C36.332000732421875,59.29899978637695 -38.08100128173828,59.29899978637695 -38.08100128173828,59.29899978637695 C-38.08100128173828,59.29899978637695 -49.99700164794922,100.26399993896484 -49.99700164794922,100.26399993896484 C-49.99700164794922,100.26399993896484 -103.77300262451172,100.26399993896484 -103.77300262451172,100.26399993896484 C-103.77300262451172,100.26399993896484 -42.150001525878906,-100.26399993896484 -42.150001525878906,-100.26399993896484 C-42.150001525878906,-100.26399993896484 42.145999908447266,-100.26399993896484 42.145999908447266,-100.26399993896484 C42.145999908447266,-100.26399993896484 103.77200317382812,100.26399993896484 103.77200317382812,100.26399993896484 C103.77200317382812,100.26399993896484 48.25,100.26399993896484 48.25,100.26399993896484z M-26.452999114990234,18.6200008392334 C-26.452999114990234,18.6200008392334 24.70599937438965,18.6200008392334 24.70599937438965,18.6200008392334 C24.70599937438965,18.6200008392334 -0.875,-70.18399810791016 -0.875,-70.18399810791016 C-0.875,-70.18399810791016 -26.452999114990234,18.6200008392334 -26.452999114990234,18.6200008392334z"></path></g><g opacity="1" transform="matrix(1,0,0,1,1111.469970703125,103.95099639892578)"><path fill="rgb(31,31,31)" fill-opacity="1" d=" M42,-100.26399993896484 C42,-100.26399993896484 94.02999877929688,-100.26399993896484 94.02999877929688,-100.26399993896484 C94.02999877929688,-100.26399993896484 94.02999877929688,100.26399993896484 94.02999877929688,100.26399993896484 C94.02999877929688,100.26399993896484 2.4700000286102295,100.26399993896484 2.4700000286102295,100.26399993896484 C2.4700000286102295,100.26399993896484 -42,-60.72999954223633 -42,-60.72999954223633 C-42,-60.72999954223633 -42,100.26399993896484 -42,100.26399993896484 C-42,100.26399993896484 -94.02999877929688,100.26399993896484 -94.02999877929688,100.26399993896484 C-94.02999877929688,100.26399993896484 -94.02999877929688,-100.26399993896484 -94.02999877929688,-100.26399993896484 C-94.02999877929688,-100.26399993896484 -2.4700000286102295,-100.26399993896484 -2.4700000286102295,-100.26399993896484 C-2.4700000286102295,-100.26399993896484 42,60.731998443603516 42,60.731998443603516 C42,60.731998443603516 42,-100.26399993896484 42,-100.26399993896484z"></path></g></g></g></g></svg>