<?xml version="1.0" encoding="UTF-8"?> <svg xmlns="http://www.w3.org/2000/svg" width="147" height="85" viewBox="0 0 147 85" fill="none"><rect x="0.5" y="0.5" width="146" height="84" fill="#D6DBE0"></rect><rect x="0.5" y="0.5" width="146" height="84" stroke="#1F1F1F"></rect><path d="M65.0391 28.9297L60.6602 56.195H67.6662L72.1035 28.9297H65.0391Z" fill="#1F1F1F"></path><path d="M86.2851 39.8437C83.8332 38.6176 82.3151 37.7418 82.3151 36.4573C82.3151 35.2897 83.5994 34.122 86.4018 34.122C88.6789 34.0637 90.372 34.589 91.6565 35.1729L92.2986 35.4648L93.2329 29.5681C91.8316 29.0426 89.613 28.4004 86.9273 28.4004C79.9797 28.4004 75.0754 32.1369 75.0171 37.3915C74.9586 41.3033 78.5201 43.4635 81.2058 44.8062C83.9499 46.149 84.8839 47.0248 84.8839 48.1925C84.8839 50.0024 82.6654 50.8782 80.6803 50.8782C77.8778 50.8782 76.36 50.4695 74.0829 49.4185L73.1489 49.0099L72.1562 55.14C73.7911 55.8991 76.827 56.5414 80.0382 56.5997C87.4529 56.5997 92.2404 52.9216 92.2986 47.3167C92.2404 44.164 90.372 41.8286 86.2851 39.8437Z" fill="#1F1F1F"></path><path d="M111.278 28.9297H105.848C104.155 28.9297 102.87 29.3968 102.17 31.2067L91.7188 56.195H99.1337C99.1337 56.195 100.36 52.8087 100.593 52.1081C101.411 52.1081 108.592 52.1081 109.643 52.1081C109.818 53.0422 110.46 56.195 110.46 56.195H116.999L111.278 28.9297ZM102.578 46.5615C103.162 44.9852 105.381 38.9133 105.381 38.9133C105.322 38.9716 105.965 37.3369 106.315 36.2861L106.782 38.6214C106.782 38.6214 108.125 45.1604 108.417 46.5032C107.366 46.5615 103.979 46.5615 102.578 46.5615Z" fill="#1F1F1F"></path><path d="M54.7566 28.9297L47.8674 47.5542L47.1084 43.7591L44.6563 31.265C44.2476 29.5135 43.0216 29.0465 41.4452 28.9881H30.1187L30.002 29.5135C32.746 30.2141 35.2565 31.265 37.4167 32.4911L43.7221 56.1365H51.1953L62.2297 28.9297H54.7566Z" fill="#1F1F1F"></path></svg> 