<svg width="18" height="21" viewBox="0 0 18 21" fill="none" xmlns="http://www.w3.org/2000/svg">
<path fill-rule="evenodd" clip-rule="evenodd" d="M13.7319 5.52533H16.3185H17.3185V6.52533V19.5416V20.5416H16.3185H1.13603H0.136032V19.5416V6.52533V5.52533H1.13603H3.68901L3.71279 5.25318C3.97688 2.231 6.41449 0.707494 8.67923 0.709039C10.9345 0.710578 13.3708 2.21944 13.6975 5.21011L13.7319 5.52533ZM10.6942 3.42728C11.2275 3.88008 11.6132 4.54686 11.7093 5.42728H9.68232H7.72226H5.7052C5.78217 4.5464 6.15238 3.87985 6.67455 3.42728C7.78011 2.4691 9.56687 2.47015 10.6942 3.42728ZM2.13603 18.5416V7.52533H15.3185V18.5416H2.13603Z" fill="black"/>
</svg>
