<svg width="294" height="223" viewBox="0 0 294 223" fill="none" xmlns="http://www.w3.org/2000/svg">
<path fill-rule="evenodd" clip-rule="evenodd" d="M64.5685 63.1058C58.6289 -0.722841 146.495 -23.1839 172.24 34.7245L211.176 21.1396L213.556 20.3094L214.367 22.6953L247.961 121.5H293.5V144.5H0.5V121.5H41.4752L27.6876 87.9503L26.6844 85.509L29.1764 84.6396L65.3964 72.0024L64.5685 63.1058ZM69.547 62.6425C64.1472 4.6152 143.812 -15.8992 167.501 36.3779L70.2601 70.3054L69.547 62.6425ZM33.3156 88.491L46.6755 121H242.509L210.444 26.6906L33.3156 88.491ZM0.5 151.5V164H293.5V151.5H0.5ZM293.5 179.5V171.5H0.5V179.5H293.5ZM293.5 188V195.5H0.5V188H293.5ZM293.5 201.5V206L0.5 205.5V201.5H293.5ZM293.5 215.5L0.5 215V213H293.5V215.5Z" fill="black"/>
<path d="M172.24 34.7245L171.783 34.9276L171.97 35.3482L172.405 35.1966L172.24 34.7245ZM64.5685 63.1058L64.0706 63.1521L64.0706 63.1521L64.5685 63.1058ZM211.176 21.1396L211.341 21.6116L211.341 21.6116L211.176 21.1396ZM213.556 20.3094L214.029 20.1485L213.867 19.6713L213.391 19.8373L213.556 20.3094ZM214.367 22.6953L214.84 22.5343L214.84 22.5343L214.367 22.6953ZM247.961 121.5L247.487 121.661L247.602 122H247.961V121.5ZM293.5 121.5H294V121H293.5V121.5ZM293.5 144.5V145H294V144.5H293.5ZM0.5 144.5H0V145H0.5V144.5ZM0.5 121.5V121H0V121.5H0.5ZM41.4752 121.5V122H42.2213L41.9377 121.31L41.4752 121.5ZM27.6876 87.9503L28.1501 87.7602L28.1501 87.7602L27.6876 87.9503ZM26.6844 85.509L26.5197 85.0369L26.0213 85.2108L26.2219 85.6991L26.6844 85.509ZM29.1764 84.6396L29.3411 85.1116L29.3411 85.1116L29.1764 84.6396ZM65.3964 72.0024L65.5611 72.4745L65.9305 72.3456L65.8942 71.9561L65.3964 72.0024ZM167.501 36.3779L167.666 36.85L168.183 36.6698L167.957 36.1715L167.501 36.3779ZM69.547 62.6425L70.0448 62.5962L70.0448 62.5962L69.547 62.6425ZM70.2601 70.3054L69.7622 70.3518L69.8214 70.988L70.4248 70.7775L70.2601 70.3054ZM46.6755 121L46.213 121.19L46.3404 121.5H46.6755V121ZM33.3156 88.491L33.1509 88.0189L32.6525 88.1928L32.8531 88.681L33.3156 88.491ZM242.509 121V121.5H243.208L242.983 120.839L242.509 121ZM210.444 26.6906L210.918 26.5297L210.755 26.0525L210.28 26.2185L210.444 26.6906ZM0.5 164H0V164.5H0.5V164ZM0.5 151.5V151H0V151.5H0.5ZM293.5 164V164.5H294V164H293.5ZM293.5 151.5H294V151H293.5V151.5ZM293.5 171.5H294V171H293.5V171.5ZM293.5 179.5V180H294V179.5H293.5ZM0.5 171.5V171H0V171.5H0.5ZM0.5 179.5H0V180H0.5V179.5ZM293.5 195.5V196H294V195.5H293.5ZM293.5 188H294V187.5H293.5V188ZM0.5 195.5H0V196H0.5V195.5ZM0.5 188V187.5H0V188H0.5ZM293.5 206L293.499 206.5L294 206.501V206H293.5ZM293.5 201.5H294V201H293.5V201.5ZM0.5 205.5H0V205.999L0.499147 206L0.5 205.5ZM0.5 201.5V201H0V201.5H0.5ZM0.5 215H0V215.499L0.499147 215.5L0.5 215ZM293.5 215.5L293.499 216L294 216.001V215.5H293.5ZM0.5 213V212.5H0V213H0.5ZM293.5 213H294V212.5H293.5V213ZM172.697 34.5214C146.724 -23.8998 58.0781 -1.24504 64.0706 63.1521L65.0663 63.0594C59.1796 -0.200638 146.266 -22.4679 171.783 34.9276L172.697 34.5214ZM211.012 20.6675L172.075 34.2524L172.405 35.1966L211.341 21.6116L211.012 20.6675ZM213.391 19.8373L211.012 20.6675L211.341 21.6116L213.72 20.7815L213.391 19.8373ZM214.84 22.5343L214.029 20.1485L213.082 20.4704L213.894 22.8562L214.84 22.5343ZM248.434 121.339L214.84 22.5343L213.894 22.8562L247.487 121.661L248.434 121.339ZM247.961 122H293.5V121H247.961V122ZM293 121.5V144.5H294V121.5H293ZM293.5 144H0.5V145H293.5V144ZM1 144.5V121.5H0V144.5H1ZM0.5 122H41.4752V121H0.5V122ZM27.2252 88.1403L41.0127 121.69L41.9377 121.31L28.1501 87.7602L27.2252 88.1403ZM26.2219 85.6991L27.2252 88.1403L28.1501 87.7602L27.1469 85.319L26.2219 85.6991ZM29.0117 84.1675L26.5197 85.0369L26.8491 85.9811L29.3411 85.1116L29.0117 84.1675ZM65.2317 71.5303L29.0117 84.1675L29.3411 85.1116L65.5611 72.4745L65.2317 71.5303ZM64.0706 63.1521L64.8985 72.0487L65.8942 71.9561L65.0663 63.0594L64.0706 63.1521ZM167.957 36.1715C144.037 -16.6135 63.5965 4.09344 69.0491 62.6888L70.0448 62.5962C64.6979 5.13697 143.587 -15.185 167.046 36.5842L167.957 36.1715ZM70.4248 70.7775L167.666 36.85L167.337 35.9058L70.0953 69.8333L70.4248 70.7775ZM69.0491 62.6888L69.7622 70.3518L70.7579 70.2591L70.0448 62.5962L69.0491 62.6888ZM47.138 120.81L33.7781 88.3009L32.8531 88.681L46.213 121.19L47.138 120.81ZM242.509 120.5H46.6755V121.5H242.509V120.5ZM209.971 26.8516L242.036 121.161L242.983 120.839L210.918 26.5297L209.971 26.8516ZM33.4803 88.9631L210.609 27.1627L210.28 26.2185L33.1509 88.0189L33.4803 88.9631ZM1 164V151.5H0V164H1ZM293.5 163.5H0.5V164.5H293.5V163.5ZM293 151.5V164H294V151.5H293ZM0.5 152H293.5V151H0.5V152ZM293 171.5V179.5H294V171.5H293ZM0.5 172H293.5V171H0.5V172ZM1 179.5V171.5H0V179.5H1ZM293.5 179H0.5V180H293.5V179ZM294 195.5V188H293V195.5H294ZM0.5 196H293.5V195H0.5V196ZM0 188V195.5H1V188H0ZM293.5 187.5H0.5V188.5H293.5V187.5ZM294 206V201.5H293V206H294ZM0.499147 206L293.499 206.5L293.501 205.5L0.500853 205L0.499147 206ZM0 201.5V205.5H1V201.5H0ZM293.5 201H0.5V202H293.5V201ZM0.499147 215.5L293.499 216L293.501 215L0.500853 214.5L0.499147 215.5ZM0 213V215H1V213H0ZM293.5 212.5H0.5V213.5H293.5V212.5ZM294 215.5V213H293V215.5H294ZM293.999 221.5L0.499148 222L0.500852 223L294.001 222.5L293.999 221.5Z" fill="black"/>
</svg>
