<svg width="420" height="131" viewBox="0 0 420 131" fill="none" xmlns="http://www.w3.org/2000/svg">
<path d="M84.232 62.6559H64.52L49.736 40.3039H44.544V62.6559H28V1.05591H57.656C64.4614 1.05591 70.1227 2.69858 74.64 5.98391C79.216 9.21058 81.504 14.2559 81.504 21.1199C81.504 31.0932 76.664 37.1946 66.984 39.4239L84.232 62.6559ZM44.544 14.2559V27.9839H55.632C61.8507 27.9839 64.96 25.6959 64.96 21.1199C64.96 16.5439 61.8507 14.2559 55.632 14.2559H44.544Z" fill="#1F1F1F"/>
<path d="M84.3818 38.0159V1.05591H100.926V36.7839C100.926 45.7012 104.681 50.1599 112.19 50.1599C119.699 50.1599 123.454 45.7012 123.454 36.7839V1.05591H139.998V38.0159C139.998 46.5226 137.651 52.9466 132.958 57.2879C128.264 61.5706 121.342 63.7119 112.19 63.7119C103.038 63.7119 96.1151 61.5706 91.4218 57.2879C86.7285 52.9466 84.3818 46.5226 84.3818 38.0159Z" fill="#1F1F1F"/>
<path d="M141.438 40.832H156.926C157.161 43.8827 158.158 46.3173 159.918 48.136C161.737 49.896 164.846 50.776 169.246 50.776C175.817 50.776 179.102 49.104 179.102 45.76C179.102 44.352 178.486 43.296 177.254 42.592C176.081 41.888 173.675 40.92 170.038 39.688L157.014 35.376C148.155 32.4427 143.726 26.84 143.726 18.568C143.726 12.3493 146.014 7.71467 150.59 4.664C155.166 1.55467 160.857 0 167.662 0C174.878 0 180.862 1.78934 185.614 5.368C190.425 8.94667 193.065 14.872 193.534 21.384H178.046C177.459 15.752 173.939 12.936 167.486 12.936C162.675 12.936 160.27 14.344 160.27 17.16C160.27 18.4507 160.798 19.4773 161.854 20.24C162.91 20.944 164.699 21.7067 167.222 22.528L180.246 26.84C185.35 28.4827 189.193 30.6533 191.774 33.352C194.355 36.0507 195.646 39.7467 195.646 44.44C195.646 50.8933 193.241 55.7333 188.43 58.96C183.678 62.128 177.225 63.712 169.07 63.712C151.353 63.712 142.142 55.7333 141.438 40.832Z" fill="#1F1F1F"/>
<path d="M196.871 40.832H212.359C212.594 43.8827 213.591 46.3173 215.351 48.136C217.17 49.896 220.279 50.776 224.679 50.776C231.25 50.776 234.535 49.104 234.535 45.76C234.535 44.352 233.919 43.296 232.687 42.592C231.514 41.888 229.109 40.92 225.471 39.688L212.447 35.376C203.589 32.4427 199.159 26.84 199.159 18.568C199.159 12.3493 201.447 7.71467 206.023 4.664C210.599 1.55467 216.29 0 223.095 0C230.311 0 236.295 1.78934 241.047 5.368C245.858 8.94667 248.498 14.872 248.967 21.384H233.479C232.893 15.752 229.373 12.936 222.919 12.936C218.109 12.936 215.703 14.344 215.703 17.16C215.703 18.4507 216.231 19.4773 217.287 20.24C218.343 20.944 220.133 21.7067 222.655 22.528L235.679 26.84C240.783 28.4827 244.626 30.6533 247.207 33.352C249.789 36.0507 251.079 39.7467 251.079 44.44C251.079 50.8933 248.674 55.7333 243.863 58.96C239.111 62.128 232.658 63.712 224.503 63.712C206.786 63.712 197.575 55.7333 196.871 40.832Z" fill="#1F1F1F"/>
<path d="M253.008 62.6559V1.05591H269.552V62.6559H253.008Z" fill="#1F1F1F"/>
<path d="M317.339 62.6559L313.731 50.0719H291.203L287.595 62.6559H271.315L289.971 1.05591H315.491L334.147 62.6559H317.339ZM294.723 37.5759H310.211L302.467 10.2959L294.723 37.5759Z" fill="#1F1F1F"/>
<path d="M377.132 1.05591H392.884V62.6559H365.164L351.7 13.1999V62.6559H335.948V1.05591H363.668L377.132 50.5119V1.05591Z" fill="#1F1F1F"/>
<path d="M45.1279 67.3999H73.8159V129H58.0639V78.3119L48.2079 129H25.9439L16.0879 78.3119V129H0.335938V67.3999H29.2879L37.2079 117.472L45.1279 67.3999Z" fill="#1F1F1F"/>
<path d="M84.5093 121.696C79.112 116.123 76.4133 108.291 76.4133 98.2C76.4133 88.1093 79.112 80.2773 84.5093 74.704C89.9066 69.1307 97.592 66.344 107.565 66.344C117.539 66.344 125.224 69.1307 130.621 74.704C136.019 80.2773 138.717 88.1093 138.717 98.2C138.717 108.291 136.019 116.123 130.621 121.696C125.224 127.269 117.539 130.056 107.565 130.056C97.592 130.056 89.9066 127.269 84.5093 121.696ZM96.8293 84.824C94.248 88.1093 92.9573 92.568 92.9573 98.2C92.9573 103.832 94.248 108.32 96.8293 111.664C99.4693 114.949 103.048 116.592 107.565 116.592C112.141 116.592 115.72 114.949 118.301 111.664C120.883 108.32 122.173 103.832 122.173 98.2C122.173 92.568 120.883 88.1093 118.301 84.824C115.72 81.48 112.141 79.808 107.565 79.808C103.048 79.808 99.4693 81.48 96.8293 84.824Z" fill="#1F1F1F"/>
<path d="M141.021 98.2C141.021 88.4027 143.661 80.6587 148.941 74.968C154.28 69.2187 161.613 66.344 170.941 66.344C178.861 66.344 185.226 68.28 190.037 72.152C194.848 76.024 197.781 82.6533 198.837 89.4H182.997C182.352 86.4667 180.944 84.1493 178.773 82.448C176.661 80.688 174.05 79.808 170.941 79.808C167.89 79.808 165.309 80.7173 163.197 82.536C161.144 84.296 159.677 86.5253 158.797 89.224C157.976 91.864 157.565 94.856 157.565 98.2C157.565 103.832 158.856 108.32 161.437 111.664C164.018 114.949 167.48 116.592 171.821 116.592C175.106 116.592 177.776 115.624 179.829 113.688C181.941 111.752 183.32 109.259 183.965 106.208H199.893C198.896 113.6 196.021 120.229 191.269 124.16C186.517 128.091 180.034 130.056 171.821 130.056C162.141 130.056 154.573 127.211 149.117 121.52C143.72 115.829 141.021 108.056 141.021 98.2Z" fill="#1F1F1F"/>
<path d="M259.324 129H239.612L224 106.208L219.108 113V129H202.564V67.3999H219.108V86.9999L233.5 67.3999H252L234.772 92.0559L259.324 129Z" fill="#1F1F1F"/>
<path d="M253.781 104.36V67.3999H270.325V103.128C270.325 112.045 274.08 116.504 281.589 116.504C289.099 116.504 292.853 112.045 292.853 103.128V67.3999H309.397V104.36C309.397 112.867 307.051 119.291 302.357 123.632C297.664 127.915 290.741 130.056 281.589 130.056C272.437 130.056 265.515 127.915 260.821 123.632C256.128 119.291 253.781 112.867 253.781 104.36Z" fill="#1F1F1F"/>
<path d="M312.422 129V67.3999H341.198C344.424 67.3999 347.387 67.7812 350.086 68.5439C352.843 69.2479 355.366 70.3626 357.654 71.8879C359.942 73.4132 361.731 75.5546 363.022 78.3119C364.371 81.0106 365.046 84.1786 365.046 87.8159C365.046 100.84 357.272 107.352 341.726 107.352H328.966V129H312.422ZM328.966 94.6799H339.174C345.392 94.6799 348.502 92.3919 348.502 87.8159C348.502 83.2399 345.392 80.9519 339.174 80.9519H328.966V94.6799Z" fill="#1F1F1F"/>
<path d="M365.243 107.176H380.731C380.966 110.227 381.963 112.661 383.723 114.48C385.542 116.24 388.651 117.12 393.051 117.12C399.622 117.12 402.907 115.448 402.907 112.104C402.907 110.696 402.291 109.64 401.059 108.936C399.886 108.232 397.48 107.264 393.843 106.032L380.819 101.72C371.96 98.7867 367.531 93.184 367.531 84.912C367.531 78.6933 369.819 74.0587 374.395 71.008C378.971 67.8987 384.662 66.344 391.467 66.344C398.683 66.344 404.667 68.1333 409.419 71.712C414.23 75.2907 416.87 81.216 417.339 87.728H401.851C401.264 82.096 397.744 79.28 391.291 79.28C386.48 79.28 384.075 80.688 384.075 83.504C384.075 84.7947 384.603 85.8213 385.659 86.584C386.715 87.288 388.504 88.0507 391.027 88.872L404.051 93.184C409.155 94.8267 412.998 96.9973 415.579 99.696C418.16 102.395 419.451 106.091 419.451 110.784C419.451 117.237 417.046 122.077 412.235 125.304C407.483 128.472 401.03 130.056 392.875 130.056C375.158 130.056 365.947 122.077 365.243 107.176Z" fill="#1F1F1F"/>
</svg>
