<?xml version="1.0" encoding="UTF-8"?> <svg xmlns="http://www.w3.org/2000/svg" width="133" height="87" viewBox="0 0 133 87" fill="none"><path d="M56.5679 61.6H36.8559L22.0719 39.248H16.8799V61.6H0.335938V0H29.9919C36.7973 0 42.4586 1.64267 46.9759 4.928C51.5519 8.15467 53.8399 13.2 53.8399 20.064C53.8399 30.0373 48.9999 36.1387 39.3199 38.368L56.5679 61.6ZM16.8799 13.2V26.928H27.9679C34.1866 26.928 37.2959 24.64 37.2959 20.064C37.2959 15.488 34.1866 13.2 27.9679 13.2H16.8799Z" fill="#1F1F1F"></path><path d="M103.792 0.400024H132.48V62H116.728V11.312L106.872 62H84.608L74.752 11.312V62H59V0.400024H87.952L95.872 50.472L103.792 0.400024Z" fill="#1F1F1F"></path><path d="M1.88588e-07 67L133 67L133 79.5793L0 79.5793L1.88588e-07 67Z" fill="#1F1F1F"></path><path d="M5.636e-07 83L133 83L133 87L0 87L5.636e-07 83Z" fill="#1F1F1F"></path></svg> 